<svg xmlns="http://www.w3.org/2000/svg" width="33" height="32" viewBox="0 0 33 32" fill="none"><path d="M32.8706 0.276641C28.9706 -0.473364 25.8456 0.301642 23.4956 2.60166C21.1956 4.90167 20.0456 8.3517 20.0456 12.9517V31.7769H32.8706V15.9517H26.0456C25.8956 13.1517 26.1456 10.7017 26.7956 8.6017C27.4456 6.50168 29.2456 5.55168 32.1956 5.75168L32.8706 0.276641ZM13.8206 0.276641C9.92061 -0.473364 6.79561 0.301642 4.44561 2.60166C2.14561 4.90167 0.995605 8.3517 0.995605 12.9517V31.7769H13.8206V15.9517H6.9956C6.84561 13.1517 7.09561 10.7017 7.7456 8.6017C8.3956 6.50168 10.1956 5.55168 13.1456 5.75168L13.8206 0.276641Z" fill="#8f37ff"></path></svg>