<svg width="240" height="60" fill="none" xmlns="http://www.w3.org/2000/svg"><g clip-path="url(#a)" fill="#fff"><path d="m46.401 21.738.119.127a30 30 0 0 0 .733-1.59 19.55 19.55 0 0 0-6.637-4.426l-.162-.066c-.007.578-.03 1.156-.07 1.732l.158.069a17.903 17.903 0 0 1 5.86 4.154ZM48.46 16.302l.136.117c.027-.099.056-.198.082-.298.16-.607.299-1.216.42-1.828l-.144-.112a25.384 25.384 0 0 0-8.89-4.516c-.058-.016-.117-.03-.175-.047l.089.46c.1.556.181 1.114.25 1.673.058.017.115.036.172.054a23.33 23.33 0 0 1 8.06 4.497ZM49.464 10.068l.157.104c.051-.896.06-1.795.03-2.695a32.656 32.656 0 0 0-.77-.46 31.022 31.022 0 0 0-10.845-3.815l-.191-.029c.363.811.689 1.638.978 2.478l.183.035a28.783 28.783 0 0 1 10.458 4.382ZM48.332 31.248l.04.17c.486-.324.963-.66 1.43-1.011l-.045-.17a19.557 19.557 0 0 0-3.49-6.981l-.108-.138c-.295.497-.603.986-.926 1.465l.102.139a17.917 17.917 0 0 1 2.997 6.527ZM52.833 27.57l.059.17c.073-.073.147-.144.22-.218a30.49 30.49 0 0 0 1.277-1.372l-.068-.17a25.382 25.382 0 0 0-5.441-8.356l-.128-.127c-.05.147-.1.295-.153.442-.19.532-.4 1.055-.62 1.574l.122.132a23.33 23.33 0 0 1 4.732 7.924ZM56.82 22.673l.083.17a29.59 29.59 0 0 0 1.373-2.32 40.441 40.441 0 0 0-.436-.784 31.025 31.025 0 0 0-7.485-8.726l-.15-.12a29.93 29.93 0 0 1-.393 2.634l.142.123a28.788 28.788 0 0 1 6.865 9.023ZM45.25 40.451l-.05.166a30.08 30.08 0 0 0 1.743-.16l.046-.17a19.553 19.553 0 0 0 .468-7.79l-.024-.174c-.504.283-1.015.553-1.535.806l.02.171a17.904 17.904 0 0 1-.668 7.15ZM50.986 39.515c-.01.06-.022.118-.033.177.1-.026.2-.05.299-.078.606-.165 1.203-.35 1.793-.55l.025-.18a25.355 25.355 0 0 0-.534-9.958l-.047-.174c-.118.102-.235.205-.354.306-.431.365-.874.714-1.323 1.054l.038.175a23.327 23.327 0 0 1 .136 9.228ZM56.888 37.268c-.005.063-.008.127-.012.19a29.548 29.548 0 0 0 2.349-1.324 42.343 42.343 0 0 0 .013-.896c0-3.983-.752-7.794-2.119-11.3l-.07-.18a29.857 29.857 0 0 1-1.657 2.087l.061.176a28.788 28.788 0 0 1 1.435 11.247ZM37.98 46.88l-.127.118a30 30 0 0 0 1.59.733l.124-.124a19.55 19.55 0 0 0 4.301-6.513l.066-.162a29.891 29.891 0 0 1-1.732-.07l-.069.158a17.903 17.903 0 0 1-4.154 5.86ZM43.416 48.937l-.118.137c.1.027.198.056.298.082.607.16 1.217.298 1.828.42l.112-.144a25.373 25.373 0 0 0 4.517-8.89l.046-.175-.46.089a30.2 30.2 0 0 1-1.672.25l-.055.172a23.33 23.33 0 0 1-4.496 8.06ZM49.65 49.942l-.105.157c.897.051 1.796.06 2.695.03l.102-.166a31.024 31.024 0 0 0 4.173-11.449l.03-.191c-.812.363-1.638.689-2.479.978l-.035.183a28.786 28.786 0 0 1-4.381 10.458ZM28.47 48.812l-.17.039c.324.486.66.963 1.011 1.43l.17-.045a19.557 19.557 0 0 0 6.981-3.49l.138-.108a29.942 29.942 0 0 1-1.465-.926l-.139.102a17.92 17.92 0 0 1-6.527 2.997ZM32.149 53.312l-.17.059.217.22c.446.442.904.867 1.373 1.277l.17-.068a25.381 25.381 0 0 0 8.355-5.44l.128-.129c-.148-.05-.296-.1-.443-.153-.532-.19-1.055-.4-1.574-.619l-.132.12a23.33 23.33 0 0 1-7.924 4.733ZM37.045 57.299c-.057.027-.113.056-.17.084a29.6 29.6 0 0 0 2.32 1.372 28.168 28.168 0 0 0 .784-.436 31.027 31.027 0 0 0 8.726-7.485l.12-.15a29.93 29.93 0 0 1-2.635-.392c-.04.047-.08.094-.122.14a28.79 28.79 0 0 1-9.023 6.867ZM19.268 45.73l-.166-.051c.036.582.09 1.163.16 1.743l.17.046a19.552 19.552 0 0 0 7.79.468l.173-.024a29.863 29.863 0 0 1-.806-1.535l-.17.02a17.907 17.907 0 0 1-7.15-.667ZM20.203 51.465c-.059-.01-.118-.022-.177-.034.026.1.051.2.079.3.165.606.35 1.203.55 1.793l.18.025a25.355 25.355 0 0 0 9.958-.534l.174-.047-.307-.354c-.364-.431-.713-.874-1.053-1.323l-.175.038a23.325 23.325 0 0 1-9.229.136ZM22.45 57.367l-.189-.012a29.55 29.55 0 0 0 1.323 2.349 41.637 41.637 0 0 0 .897.013c3.983 0 7.794-.752 11.299-2.119l.18-.07a29.882 29.882 0 0 1-2.086-1.657l-.177.061a28.787 28.787 0 0 1-11.247 1.435ZM12.838 38.459l-.118-.127c-.26.523-.504 1.053-.733 1.59l.124.124a19.55 19.55 0 0 0 6.513 4.301l.162.066c.007-.578.03-1.155.07-1.732a18.078 18.078 0 0 1-1.888-.947 17.903 17.903 0 0 1-4.13-3.275ZM10.78 43.894l-.135-.118c-.028.1-.056.199-.082.298-.16.608-.3 1.217-.42 1.828l.143.113a25.373 25.373 0 0 0 8.89 4.516l.175.046c-.03-.153-.06-.306-.088-.46-.101-.555-.182-1.113-.251-1.672l-.171-.054a23.33 23.33 0 0 1-8.06-4.497ZM9.776 50.129c-.052-.036-.105-.07-.157-.105a29.54 29.54 0 0 0-.03 2.695 36.547 36.547 0 0 0 .77.46 31.023 31.023 0 0 0 10.845 3.815l.191.03a29.848 29.848 0 0 1-.978-2.479l-.183-.035a28.782 28.782 0 0 1-10.458-4.381ZM10.906 28.948c-.013-.056-.027-.113-.039-.17-.487.324-.963.66-1.43 1.011l.045.17a19.557 19.557 0 0 0 3.49 6.982c.036.045.071.092.108.137.294-.497.602-.986.926-1.465a18.054 18.054 0 0 1-1.162-1.764 17.914 17.914 0 0 1-1.938-4.901ZM6.405 32.627l-.059-.17c-.073.072-.148.143-.22.216a30.45 30.45 0 0 0-1.278 1.373c.022.057.046.113.069.17a25.38 25.38 0 0 0 5.44 8.356l.129.127c.05-.147.1-.295.153-.442.19-.532.4-1.055.619-1.574l-.121-.133a23.32 23.32 0 0 1-4.732-7.923ZM2.418 37.523l-.084-.17c-.492.752-.95 1.526-1.372 2.32a33.271 33.271 0 0 0 .436.784 31.026 31.026 0 0 0 7.485 8.726l.15.12c.092-.883.223-1.762.392-2.634l-.14-.122a28.788 28.788 0 0 1-6.867-9.024ZM13.989 19.745l.05-.166c-.582.037-1.164.09-1.743.16l-.046.17a19.553 19.553 0 0 0-.468 7.79l.024.174a29.864 29.864 0 0 1 1.535-.806l-.02-.171a17.907 17.907 0 0 1 .668-7.15ZM8.251 20.681l.034-.177-.3.078a30.55 30.55 0 0 0-1.792.55c-.01.06-.017.121-.025.181a25.363 25.363 0 0 0 .534 9.958l.047.174c.117-.103.235-.206.354-.307.43-.365.873-.714 1.323-1.053l-.039-.176a23.325 23.325 0 0 1-.136-9.228ZM2.35 22.928l.012-.189c-.802.405-1.585.846-2.349 1.323a38.705 38.705 0 0 0-.013.897c0 3.983.752 7.794 2.119 11.299l.07.18a29.878 29.878 0 0 1 1.657-2.086l-.061-.176A28.789 28.789 0 0 1 2.35 22.928ZM21.258 13.317l.127-.119a29.964 29.964 0 0 0-1.59-.733l-.124.124a19.551 19.551 0 0 0-4.301 6.513c-.022.055-.045.108-.066.163.578.006 1.155.029 1.732.069l.069-.158a17.903 17.903 0 0 1 4.154-5.86ZM15.823 11.258l.118-.136c-.1-.027-.199-.056-.299-.082a30.388 30.388 0 0 0-1.827-.42l-.113.144a25.381 25.381 0 0 0-4.516 8.89l-.046.175.46-.089c.555-.1 1.113-.181 1.672-.25l.054-.172a23.322 23.322 0 0 1 4.497-8.06ZM9.589 10.254l.105-.157c-.897-.051-1.796-.06-2.696-.03a32.656 32.656 0 0 0-.46.77 31.022 31.022 0 0 0-3.814 10.845l-.03.191c.811-.363 1.638-.689 2.478-.978l.035-.183A28.795 28.795 0 0 1 9.59 10.254ZM30.77 11.384l.169-.039c-.323-.486-.66-.963-1.01-1.43l-.17.045a19.556 19.556 0 0 0-6.982 3.49l-.138.108c.498.295.986.603 1.466.926l.138-.102a17.919 17.919 0 0 1 6.527-2.997ZM27.09 6.884l.17-.059c-.072-.073-.143-.148-.216-.22a30.391 30.391 0 0 0-1.373-1.278c-.057.022-.113.046-.17.069a25.382 25.382 0 0 0-8.356 5.44l-.127.129a29.88 29.88 0 0 1 2.016.772l.133-.121a23.32 23.32 0 0 1 7.923-4.732ZM22.194 2.897c.057-.028.113-.057.17-.084a29.572 29.572 0 0 0-2.32-1.373 33.426 33.426 0 0 0-.784.437 31.025 31.025 0 0 0-8.726 7.485l-.12.15c.883.092 1.763.222 2.635.392.04-.047.08-.094.122-.14a28.79 28.79 0 0 1 9.023-6.867ZM39.973 14.466l.166.051a30.076 30.076 0 0 0-.16-1.743l-.17-.046a19.553 19.553 0 0 0-7.79-.469l-.174.025c.283.503.553 1.015.806 1.534l.171-.019a17.907 17.907 0 0 1 7.15.668ZM39.037 8.73l.177.034c-.026-.1-.05-.2-.078-.3a30.474 30.474 0 0 0-.55-1.792c-.06-.01-.12-.017-.18-.026a25.365 25.365 0 0 0-9.958.534l-.175.048c.103.117.206.235.307.354.365.43.714.873 1.054 1.323.058-.014.116-.026.175-.039a23.325 23.325 0 0 1 9.228-.136ZM36.79 2.829l.189.012A29.554 29.554 0 0 0 35.656.492a38.46 38.46 0 0 0-.897-.014c-3.983 0-7.794.752-11.299 2.12l-.18.07c.72.52 1.416 1.073 2.086 1.656l.177-.06A28.789 28.789 0 0 1 36.79 2.828Z"/></g><path d="m88.92 32.624-5.034-8.647h-3.73v8.647h-4.917V7.75h9.95c2.31 0 4.265.829 5.864 2.428 1.599 1.6 2.428 3.553 2.428 5.804 0 3.08-1.895 5.923-4.797 7.226l5.508 9.357H88.92v.06ZM80.214 12.37v7.344h5.035c1.836 0 3.375-1.658 3.375-3.672 0-2.013-1.54-3.672-3.375-3.672h-5.035ZM99.877 25.636c.592 2.25 2.251 3.317 5.034 3.317 1.718 0 3.08-.593 3.968-1.777l3.672 2.132c-1.717 2.547-4.323 3.79-7.758 3.79-2.962 0-5.271-.888-7.048-2.665-1.777-1.777-2.665-4.027-2.665-6.692s.888-4.916 2.606-6.693c1.717-1.836 4.027-2.724 6.751-2.724 2.606 0 4.738.888 6.456 2.724 1.717 1.836 2.547 4.028 2.547 6.693 0 .592-.06 1.184-.178 1.895H99.877Zm9.002-3.554c-.533-2.428-2.31-3.612-4.382-3.612-2.429 0-4.146 1.303-4.68 3.612h9.062ZM126.292 19.299h-4.027v7.403c0 1.895 1.362 1.954 4.027 1.836v4.146c-6.278.71-8.588-1.126-8.588-5.982v-7.404h-3.079v-4.382h3.079v-3.613l4.561-1.362v4.975h4.027v4.383ZM144.177 16.337c1.303 1.303 1.896 3.08 1.896 5.39v10.897h-4.561V22.26c0-2.369-1.362-3.672-3.494-3.672-2.369 0-3.909 1.48-3.909 4.383v9.594h-4.56V7.691h4.56v9.12c1.125-1.658 2.902-2.487 5.271-2.487 1.955.059 3.554.71 4.797 2.013ZM149.508 9.941c0-1.54 1.303-2.843 2.783-2.843 1.54 0 2.843 1.303 2.843 2.843s-1.303 2.784-2.843 2.784a2.78 2.78 0 0 1-2.783-2.784Zm.533 22.683V14.857h4.56v17.767h-4.56ZM173.495 16.337c1.303 1.303 1.895 3.08 1.895 5.39v10.897h-4.56V22.26c0-2.37-1.362-3.672-3.494-3.672-2.369 0-3.909 1.48-3.909 4.383v9.594h-4.561V14.798h4.561v2.013c1.125-1.658 2.902-2.487 5.271-2.487 1.954.059 3.553.71 4.797 2.013ZM195.704 32.624h-5.33l-6.456-8.054v8.054h-4.56V7.75h4.56v14.925l6.101-7.818h5.448l-7.166 8.765 7.403 9.002ZM216.492 25.695c0 1.895-.652 3.553-2.014 4.916-1.362 1.362-2.961 2.013-4.916 2.013h-10.838V7.75h10.009c1.836 0 3.435.651 4.738 2.013 1.303 1.303 1.954 2.902 1.954 4.68 0 2.309-.947 4.086-2.902 5.27 2.369 1.066 3.969 3.317 3.969 5.982Zm-15.281-15.576v8.647h7.522c1.184 0 2.132-.415 2.961-1.244.829-.83 1.244-1.895 1.244-3.08 0-1.184-.415-2.191-1.244-3.08-.829-.829-1.777-1.303-2.961-1.303h-7.522v.06Zm8.351 20.195c1.244 0 2.251-.414 3.139-1.302.888-.889 1.303-2.014 1.303-3.258 0-1.244-.415-2.369-1.303-3.257a4.166 4.166 0 0 0-3.139-1.362h-8.351v9.18h8.351ZM236.747 7.75h2.488v24.874h-2.488V21.016h-13.503v11.608h-2.488V7.75h2.488v10.897h13.503V7.75ZM78.93 50.215h-.991v-7.681h-2.7v-.885h6.39v.885h-2.7v7.681ZM88.287 46.999c0 1.046-.263 1.865-.787 2.455-.525.586-1.25.879-2.175.879-.571 0-1.078-.135-1.521-.405a2.664 2.664 0 0 1-1.026-1.16c-.242-.504-.362-1.094-.362-1.77 0-1.046.26-1.86.781-2.443.521-.586 1.244-.879 2.169-.879.894 0 1.603.3 2.128.897.528.597.793 1.406.793 2.426Zm-4.868 0c0 .82.163 1.445.49 1.875.326.43.806.644 1.44.644.633 0 1.113-.213 1.44-.639.33-.43.495-1.056.495-1.88 0-.817-.165-1.436-.496-1.858-.326-.425-.81-.638-1.451-.638-.634 0-1.112.209-1.434.627-.323.417-.484 1.04-.484 1.869ZM95.219 43.794v.615l-1.184.14c.109.137.206.317.292.54.085.218.128.466.128.744 0 .629-.214 1.13-.641 1.506-.428.375-1.015.562-1.761.562-.19 0-.37-.016-.536-.047-.412.219-.618.494-.618.826 0 .176.072.307.215.393.144.082.391.123.74.123h1.132c.692 0 1.222.146 1.591.44.374.292.56.718.56 1.277 0 .71-.284 1.252-.851 1.623-.568.375-1.395.562-2.484.562-.835 0-1.48-.156-1.935-.468-.451-.313-.677-.754-.677-1.325 0-.39.125-.728.374-1.013.248-.285.598-.479 1.049-.58a1.034 1.034 0 0 1-.414-.346.93.93 0 0 1-.163-.545c0-.234.062-.44.186-.615.125-.176.321-.346.59-.51-.331-.137-.601-.37-.811-.697a2.071 2.071 0 0 1-.31-1.125c0-.704.21-1.245.63-1.623.42-.383 1.015-.575 1.784-.575.335 0 .636.04.904.118h2.21Zm-5.096 7.5c0 .347.146.61.438.79.291.18.709.27 1.253.27.812 0 1.413-.123 1.801-.369.393-.242.59-.572.59-.99 0-.348-.108-.59-.321-.727-.214-.133-.617-.199-1.207-.199h-1.16c-.44 0-.782.105-1.026.316-.245.211-.368.514-.368.909Zm.525-5.444c0 .45.126.79.379 1.02.252.23.604.346 1.055.346.945 0 1.417-.462 1.417-1.383 0-.965-.478-1.448-1.434-1.448-.455 0-.805.123-1.05.37-.245.246-.367.61-.367 1.095ZM99.23 50.333c-.945 0-1.691-.29-2.24-.867-.543-.579-.815-1.381-.815-2.409 0-1.035.252-1.857.758-2.467.509-.609 1.19-.914 2.046-.914.8 0 1.434.266 1.901.797.466.528.699 1.225.699 2.092v.615h-4.401c.019.754.207 1.327.565 1.717.362.39.869.586 1.522.586.688 0 1.368-.144 2.04-.434v.868a4.921 4.921 0 0 1-.973.316c-.304.066-.67.1-1.102.1Zm-.263-5.842c-.513 0-.923.168-1.23.504-.303.336-.482.8-.536 1.394h3.34c0-.613-.136-1.082-.408-1.406-.272-.328-.66-.492-1.166-.492ZM105.299 49.53c.171 0 .336-.012.495-.035a3.48 3.48 0 0 0 .379-.082v.744c-.105.05-.26.092-.466.123a3.222 3.222 0 0 1-.548.053c-1.236 0-1.854-.655-1.854-1.963v-3.82h-.916v-.47l.916-.404.408-1.37h.56v1.488h1.853v.755h-1.853v3.78c0 .386.091.683.274.89.182.207.433.31.752.31ZM111.828 50.215v-4.154c0-.523-.118-.914-.355-1.172-.238-.258-.609-.386-1.114-.386-.672 0-1.164.183-1.475.55-.307.367-.461.97-.461 1.805v3.358h-.967v-9.118h.967v2.76c0 .332-.015.608-.046.826h.058c.191-.308.461-.55.811-.726.353-.18.755-.27 1.206-.27.782 0 1.366.188 1.755.563.393.37.589.963.589 1.775v4.19h-.968ZM117.489 50.333c-.944 0-1.691-.29-2.239-.867-.544-.579-.816-1.381-.816-2.409 0-1.035.253-1.857.758-2.467.509-.609 1.191-.914 2.046-.914.801 0 1.435.266 1.901.797.466.528.7 1.225.7 2.092v.615h-4.402c.019.754.208 1.327.565 1.717.362.39.869.586 1.522.586.688 0 1.368-.144 2.041-.434v.868a4.95 4.95 0 0 1-.974.316c-.303.066-.671.1-1.102.1Zm-.262-5.842c-.513 0-.923.168-1.23.504-.304.336-.482.8-.537 1.394h3.341c0-.613-.136-1.082-.408-1.406-.272-.328-.661-.492-1.166-.492ZM124.409 43.676c.284 0 .539.024.764.07l-.134.903a3.288 3.288 0 0 0-.7-.088c-.517 0-.96.211-1.329.633-.365.422-.548.947-.548 1.576v3.445h-.968v-6.421h.799l.111 1.189h.046c.237-.418.523-.74.857-.967.335-.226.702-.34 1.102-.34ZM137.054 50.215h-.979l-1.72-5.736a18.163 18.163 0 0 1-.274-.96c-.101-.387-.153-.62-.157-.698-.086.516-.222 1.08-.408 1.693l-1.668 5.701h-.979l-2.268-8.566h1.049l1.347 5.291c.187.742.323 1.414.408 2.016.105-.715.261-1.414.467-2.098l1.527-5.209h1.049l1.604 5.256a16.1 16.1 0 0 1 .472 2.05c.074-.554.214-1.23.42-2.027l1.341-5.279h1.049l-2.28 8.566ZM143.222 50.333c-.944 0-1.69-.29-2.238-.867-.544-.579-.816-1.381-.816-2.409 0-1.035.252-1.857.757-2.467.51-.609 1.192-.914 2.047-.914.8 0 1.434.266 1.9.797.467.528.7 1.225.7 2.092v.615h-4.402c.02.754.208 1.327.566 1.717.361.39.868.586 1.521.586.688 0 1.369-.144 2.041-.434v.868a4.93 4.93 0 0 1-.974.316c-.303.066-.67.1-1.102.1Zm-.262-5.842c-.513 0-.923.168-1.23.504-.303.336-.482.8-.536 1.394h3.34c0-.613-.136-1.082-.408-1.406-.272-.328-.661-.492-1.166-.492ZM155.879 44.145c0 .867-.295 1.535-.886 2.004-.587.465-1.428.697-2.524.697h-1.003v3.37h-.991v-8.567h2.209c2.13 0 3.195.832 3.195 2.496Zm-4.413 1.846h.892c.878 0 1.514-.143 1.906-.428.393-.285.589-.742.589-1.371 0-.566-.184-.988-.554-1.266-.369-.277-.944-.416-1.725-.416h-1.108v3.48ZM163.038 46.999c0 1.046-.262 1.865-.787 2.455-.524.586-1.249.879-2.174.879-.571 0-1.079-.135-1.522-.405a2.664 2.664 0 0 1-1.026-1.16c-.241-.504-.361-1.094-.361-1.77 0-1.046.26-1.86.781-2.443.521-.586 1.244-.879 2.169-.879.894 0 1.603.3 2.128.897.528.597.792 1.406.792 2.426Zm-4.868 0c0 .82.164 1.445.49 1.875.327.43.807.644 1.44.644.634 0 1.114-.213 1.44-.639.331-.43.496-1.056.496-1.88 0-.817-.165-1.436-.496-1.858-.326-.425-.81-.638-1.451-.638-.634 0-1.112.209-1.435.627-.322.417-.484 1.04-.484 1.869ZM169.959 50.215l-1.172-3.767c-.074-.23-.212-.754-.414-1.57h-.047c-.155.683-.291 1.21-.408 1.582l-1.207 3.755h-1.119l-1.743-6.421h1.014c.412 1.613.725 2.841.939 3.685.218.844.342 1.412.373 1.705h.047c.042-.222.11-.51.204-.861.097-.356.18-.637.25-.844l1.172-3.685h1.05l1.142 3.685c.218.672.366 1.236.443 1.694h.047c.016-.141.056-.358.122-.65.07-.294.477-1.87 1.219-4.73h1.003l-1.767 6.422h-1.148ZM176.733 50.333c-.944 0-1.691-.29-2.239-.867-.544-.579-.816-1.381-.816-2.409 0-1.035.253-1.857.758-2.467.509-.609 1.191-.914 2.046-.914.801 0 1.435.266 1.901.797.466.528.7 1.225.7 2.092v.615h-4.402c.019.754.208 1.327.565 1.717.362.39.869.586 1.522.586.688 0 1.368-.144 2.041-.434v.868a4.95 4.95 0 0 1-.974.316c-.303.066-.671.1-1.102.1Zm-.262-5.842c-.513 0-.923.168-1.23.504-.304.336-.482.8-.537 1.394h3.341c0-.613-.136-1.082-.408-1.406-.272-.328-.661-.492-1.166-.492ZM183.653 43.676c.284 0 .539.024.764.07l-.134.903a3.288 3.288 0 0 0-.7-.088c-.517 0-.96.211-1.329.633-.365.422-.548.947-.548 1.576v3.445h-.968v-6.421h.799l.111 1.189h.046c.237-.418.523-.74.857-.967.335-.226.702-.34 1.102-.34ZM194.264 44.145c0 .867-.296 1.535-.886 2.004-.587.465-1.429.697-2.525.697h-1.003v3.37h-.991v-8.567h2.21c2.13 0 3.195.832 3.195 2.496Zm-4.414 1.846h.892c.879 0 1.514-.143 1.907-.428.392-.285.589-.742.589-1.371 0-.566-.185-.988-.554-1.266-.369-.277-.945-.416-1.726-.416h-1.108v3.48ZM201.423 46.999c0 1.046-.262 1.865-.787 2.455-.525.586-1.25.879-2.175.879-.571 0-1.078-.135-1.521-.405a2.664 2.664 0 0 1-1.026-1.16c-.241-.504-.362-1.094-.362-1.77 0-1.046.261-1.86.781-2.443.521-.586 1.244-.879 2.169-.879.894 0 1.603.3 2.128.897.529.597.793 1.406.793 2.426Zm-4.868 0c0 .82.163 1.445.49 1.875.326.43.806.644 1.44.644.633 0 1.113-.213 1.44-.639.33-.43.495-1.056.495-1.88 0-.817-.165-1.436-.495-1.858-.327-.425-.811-.638-1.452-.638-.634 0-1.112.209-1.434.627-.323.417-.484 1.04-.484 1.869ZM205.189 49.53c.171 0 .336-.012.496-.035a3.59 3.59 0 0 0 .379-.082v.744c-.105.05-.261.092-.467.123a3.222 3.222 0 0 1-.548.053c-1.236 0-1.854-.655-1.854-1.963v-3.82h-.915v-.47l.915-.404.408-1.37h.56v1.488h1.854v.755h-1.854v3.78c0 .386.091.683.274.89.183.207.433.31.752.31ZM210.045 50.333c-.944 0-1.69-.29-2.238-.867-.544-.579-.816-1.381-.816-2.409 0-1.035.252-1.857.757-2.467.51-.609 1.192-.914 2.047-.914.8 0 1.434.266 1.9.797.467.528.7 1.225.7 2.092v.615h-4.402c.02.754.208 1.327.566 1.717.361.39.868.586 1.521.586.688 0 1.368-.144 2.041-.434v.868a4.93 4.93 0 0 1-.974.316c-.303.066-.67.1-1.102.1Zm-.262-5.842c-.513 0-.923.168-1.23.504-.303.336-.482.8-.536 1.394h3.34c0-.613-.136-1.082-.408-1.406-.272-.328-.661-.492-1.166-.492ZM218.423 50.215v-4.154c0-.523-.118-.914-.356-1.172-.237-.258-.608-.386-1.113-.386-.669 0-1.158.181-1.469.544-.311.364-.467.963-.467 1.8v3.368h-.967v-6.421h.787l.157.879h.047a1.96 1.96 0 0 1 .833-.733 2.673 2.673 0 0 1 1.195-.264c.77 0 1.349.188 1.738.563.388.371.583.967.583 1.787v4.19h-.968ZM223.448 49.53c.171 0 .337-.012.496-.035.159-.028.286-.055.379-.082v.744c-.105.05-.26.092-.466.123a3.232 3.232 0 0 1-.548.053c-1.236 0-1.854-.655-1.854-1.963v-3.82h-.916v-.47l.916-.404.408-1.37h.559v1.488h1.854v.755h-1.854v3.78c0 .386.092.683.274.89.183.207.434.31.752.31ZM226.573 50.215h-.967v-6.421h.967v6.422Zm-1.049-8.162c0-.222.054-.384.163-.486a.563.563 0 0 1 .408-.158.57.57 0 0 1 .403.158c.112.105.169.268.169.486 0 .22-.057.383-.169.492a.57.57 0 0 1-.403.159.563.563 0 0 1-.408-.159c-.109-.109-.163-.273-.163-.492ZM232.555 50.215l-.193-.914h-.046c-.319.403-.638.676-.956.82-.315.141-.71.212-1.184.212-.633 0-1.131-.164-1.492-.492-.358-.329-.537-.796-.537-1.4 0-1.298 1.032-1.977 3.096-2.04l1.084-.035v-.399c0-.503-.108-.875-.326-1.113-.214-.242-.558-.363-1.032-.363-.532 0-1.135.164-1.807.492l-.298-.744a4.553 4.553 0 0 1 1.032-.404 4.492 4.492 0 0 1 1.131-.147c.762 0 1.326.17 1.691.51.369.34.554.885.554 1.635v4.383h-.717Zm-2.186-.685c.602 0 1.074-.166 1.416-.498.346-.332.519-.797.519-1.395v-.58l-.968.041c-.769.028-1.325.149-1.667.364-.338.21-.507.54-.507.99 0 .351.105.619.315.803.213.183.511.275.892.275ZM236.239 50.215h-.967v-9.117h.967v9.117Z" fill="#fff"/><defs><clipPath id="a"><path fill="#fff" transform="translate(0 .479)" d="M0 0h59.239v59.239H0z"/></clipPath></defs></svg>